<svg xmlns="http://www.w3.org/2000/svg" xmlns:xlink="http://www.w3.org/1999/xlink" width="1080" zoomAndPan="magnify" viewBox="0 0 810 809.999993" height="1080" preserveAspectRatio="xMidYMid meet" version="1.0"><defs><g/></defs><rect x="-81" width="972" fill="#ffffff" y="-80.999999" height="971.999992" fill-opacity="1"/><rect x="-81" width="972" fill="#ffffff" y="-80.999999" height="971.999992" fill-opacity="1"/><rect x="-81" width="972" fill="#ffffff" y="-80.999999" height="971.999992" fill-opacity="1"/><g fill="#000000" fill-opacity="1"><g transform="translate(0.386722, 485.545196)"><g><path d="M 135.890625 -277.359375 L 135.890625 -199.265625 L 292.5625 -199.265625 L 292.5625 -121.6875 L 135.890625 -121.6875 L 135.890625 0 L 35.5 0 L 35.5 -354.9375 L 313.859375 -354.9375 L 313.859375 -277.359375 Z M 135.890625 -277.359375 "/></g></g></g><g fill="#7ed957" fill-opacity="1"><g transform="translate(325.898425, 485.545196)"><g><path d="M 355.953125 0 L 354.9375 -188.109375 L 263.671875 -34.984375 L 219.046875 -34.984375 L 128.28125 -183.046875 L 128.28125 0 L 35.5 0 L 35.5 -354.9375 L 118.140625 -354.9375 L 242.875 -150.078125 L 364.5625 -354.9375 L 447.21875 -354.9375 L 448.234375 0 Z M 355.953125 0 "/></g></g></g><g fill="#000000" fill-opacity="1"><g transform="translate(45.061436, 591.648038)"><g><path d="M 39.546875 -53.546875 L 39.546875 -48.34375 L 14.390625 -48.34375 L 14.390625 -28.859375 L 37.03125 -28.859375 L 37.03125 -23.625 L 14.390625 -23.625 L 14.390625 0 L 8.09375 0 L 8.09375 -53.546875 Z M 39.546875 -53.546875 "/></g></g></g><g fill="#000000" fill-opacity="1"><g transform="translate(87.498656, 591.648038)"><g><path d="M 23.1875 0.765625 C 19.375 0.765625 16.054688 -0.0351562 13.234375 -1.640625 C 10.421875 -3.253906 8.25 -5.628906 6.71875 -8.765625 C 5.195312 -11.910156 4.4375 -15.710938 4.4375 -20.171875 C 4.4375 -24.640625 5.195312 -28.445312 6.71875 -31.59375 C 8.25 -34.75 10.421875 -37.128906 13.234375 -38.734375 C 16.054688 -40.347656 19.375 -41.15625 23.1875 -41.15625 C 26.988281 -41.15625 30.300781 -40.347656 33.125 -38.734375 C 35.945312 -37.128906 38.117188 -34.75 39.640625 -31.59375 C 41.171875 -28.445312 41.9375 -24.640625 41.9375 -20.171875 C 41.9375 -15.710938 41.171875 -11.910156 39.640625 -8.765625 C 38.117188 -5.628906 35.945312 -3.253906 33.125 -1.640625 C 30.300781 -0.0351562 26.988281 0.765625 23.1875 0.765625 Z M 23.1875 -4.578125 C 27.207031 -4.578125 30.285156 -5.84375 32.421875 -8.375 C 34.554688 -10.914062 35.625 -14.847656 35.625 -20.171875 C 35.625 -25.523438 34.554688 -29.46875 32.421875 -32 C 30.285156 -34.539062 27.207031 -35.8125 23.1875 -35.8125 C 19.15625 -35.8125 16.0625 -34.535156 13.90625 -31.984375 C 11.757812 -29.429688 10.6875 -25.492188 10.6875 -20.171875 C 10.6875 -14.847656 11.757812 -10.914062 13.90625 -8.375 C 16.0625 -5.84375 19.15625 -4.578125 23.1875 -4.578125 Z M 23.1875 -4.578125 "/></g></g></g><g fill="#000000" fill-opacity="1"><g transform="translate(133.853714, 591.648038)"><g><path d="M 23.1875 0.765625 C 19.375 0.765625 16.054688 -0.0351562 13.234375 -1.640625 C 10.421875 -3.253906 8.25 -5.628906 6.71875 -8.765625 C 5.195312 -11.910156 4.4375 -15.710938 4.4375 -20.171875 C 4.4375 -24.640625 5.195312 -28.445312 6.71875 -31.59375 C 8.25 -34.75 10.421875 -37.128906 13.234375 -38.734375 C 16.054688 -40.347656 19.375 -41.15625 23.1875 -41.15625 C 26.988281 -41.15625 30.300781 -40.347656 33.125 -38.734375 C 35.945312 -37.128906 38.117188 -34.75 39.640625 -31.59375 C 41.171875 -28.445312 41.9375 -24.640625 41.9375 -20.171875 C 41.9375 -15.710938 41.171875 -11.910156 39.640625 -8.765625 C 38.117188 -5.628906 35.945312 -3.253906 33.125 -1.640625 C 30.300781 -0.0351562 26.988281 0.765625 23.1875 0.765625 Z M 23.1875 -4.578125 C 27.207031 -4.578125 30.285156 -5.84375 32.421875 -8.375 C 34.554688 -10.914062 35.625 -14.847656 35.625 -20.171875 C 35.625 -25.523438 34.554688 -29.46875 32.421875 -32 C 30.285156 -34.539062 27.207031 -35.8125 23.1875 -35.8125 C 19.15625 -35.8125 16.0625 -34.535156 13.90625 -31.984375 C 11.757812 -29.429688 10.6875 -25.492188 10.6875 -20.171875 C 10.6875 -14.847656 11.757812 -10.914062 13.90625 -8.375 C 16.0625 -5.84375 19.15625 -4.578125 23.1875 -4.578125 Z M 23.1875 -4.578125 "/></g></g></g><g fill="#000000" fill-opacity="1"><g transform="translate(180.208772, 591.648038)"><g><path d="M 20.953125 0.765625 C 17.703125 0.765625 14.835938 -0.00390625 12.359375 -1.546875 C 9.878906 -3.097656 7.9375 -5.4375 6.53125 -8.5625 C 5.132812 -11.6875 4.4375 -15.554688 4.4375 -20.171875 C 4.4375 -24.785156 5.164062 -28.660156 6.625 -31.796875 C 8.09375 -34.941406 10.113281 -37.285156 12.6875 -38.828125 C 15.257812 -40.378906 18.242188 -41.15625 21.640625 -41.15625 C 24.328125 -41.15625 26.742188 -40.648438 28.890625 -39.640625 C 31.035156 -38.628906 32.878906 -36.960938 34.421875 -34.640625 L 35.1875 -34.796875 L 35.1875 -56.609375 L 41.15625 -56.609375 L 41.15625 0 L 35.1875 0 L 35.1875 -5.890625 L 34.421875 -6.046875 C 33.109375 -4.046875 31.320312 -2.410156 29.0625 -1.140625 C 26.800781 0.128906 24.097656 0.765625 20.953125 0.765625 Z M 22.8125 -4.578125 C 26.570312 -4.578125 29.570312 -5.863281 31.8125 -8.4375 C 34.0625 -11.019531 35.1875 -14.929688 35.1875 -20.171875 C 35.1875 -25.453125 34.0625 -29.378906 31.8125 -31.953125 C 29.570312 -34.523438 26.570312 -35.8125 22.8125 -35.8125 C 18.9375 -35.8125 15.945312 -34.550781 13.84375 -32.03125 C 11.738281 -29.519531 10.6875 -25.566406 10.6875 -20.171875 C 10.6875 -9.773438 14.726562 -4.578125 22.8125 -4.578125 Z M 22.8125 -4.578125 "/></g></g></g><g fill="#000000" fill-opacity="1"><g transform="translate(228.424712, 591.648038)"><g/></g></g><g fill="#000000" fill-opacity="1"><g transform="translate(246.805628, 591.648038)"><g/></g></g><g fill="#000000" fill-opacity="1"><g transform="translate(265.186544, 591.648038)"><g/></g></g><g fill="#000000" fill-opacity="1"><g transform="translate(283.56746, 591.648038)"><g/></g></g><g fill="#000000" fill-opacity="1"><g transform="translate(301.948376, 591.648038)"><g/></g></g><g fill="#000000" fill-opacity="1"><g transform="translate(320.329291, 591.648038)"><g/></g></g><g fill="#000000" fill-opacity="1"><g transform="translate(338.710207, 591.648038)"><g/></g></g><g fill="#7ed957" fill-opacity="1"><g transform="translate(357.084858, 591.648038)"><g><path d="M 13.921875 0 L 8.09375 0 L 8.09375 -53.546875 L 17.4375 -53.546875 L 33.65625 -8.203125 L 34.421875 -8.203125 L 50.640625 -53.546875 L 59.65625 -53.546875 L 59.65625 0 L 53.6875 0 L 53.6875 -43.6875 L 52.765625 -43.828125 L 36.953125 0 L 30.6875 0 L 14.828125 -43.828125 L 13.921875 -43.6875 Z M 13.921875 0 "/></g></g></g><g fill="#7ed957" fill-opacity="1"><g transform="translate(424.859914, 591.648038)"><g><path d="M 23.1875 0.765625 C 19.375 0.765625 16.054688 -0.0351562 13.234375 -1.640625 C 10.421875 -3.253906 8.25 -5.628906 6.71875 -8.765625 C 5.195312 -11.910156 4.4375 -15.710938 4.4375 -20.171875 C 4.4375 -24.640625 5.195312 -28.445312 6.71875 -31.59375 C 8.25 -34.75 10.421875 -37.128906 13.234375 -38.734375 C 16.054688 -40.347656 19.375 -41.15625 23.1875 -41.15625 C 26.988281 -41.15625 30.300781 -40.347656 33.125 -38.734375 C 35.945312 -37.128906 38.117188 -34.75 39.640625 -31.59375 C 41.171875 -28.445312 41.9375 -24.640625 41.9375 -20.171875 C 41.9375 -15.710938 41.171875 -11.910156 39.640625 -8.765625 C 38.117188 -5.628906 35.945312 -3.253906 33.125 -1.640625 C 30.300781 -0.0351562 26.988281 0.765625 23.1875 0.765625 Z M 23.1875 -4.578125 C 27.207031 -4.578125 30.285156 -5.84375 32.421875 -8.375 C 34.554688 -10.914062 35.625 -14.847656 35.625 -20.171875 C 35.625 -25.523438 34.554688 -29.46875 32.421875 -32 C 30.285156 -34.539062 27.207031 -35.8125 23.1875 -35.8125 C 19.15625 -35.8125 16.0625 -34.535156 13.90625 -31.984375 C 11.757812 -29.429688 10.6875 -25.492188 10.6875 -20.171875 C 10.6875 -14.847656 11.757812 -10.914062 13.90625 -8.375 C 16.0625 -5.84375 19.15625 -4.578125 23.1875 -4.578125 Z M 23.1875 -4.578125 "/></g></g></g><g fill="#7ed957" fill-opacity="1"><g transform="translate(471.214971, 591.648038)"><g><path d="M 23.1875 0.765625 C 19.375 0.765625 16.054688 -0.0351562 13.234375 -1.640625 C 10.421875 -3.253906 8.25 -5.628906 6.71875 -8.765625 C 5.195312 -11.910156 4.4375 -15.710938 4.4375 -20.171875 C 4.4375 -24.640625 5.195312 -28.445312 6.71875 -31.59375 C 8.25 -34.75 10.421875 -37.128906 13.234375 -38.734375 C 16.054688 -40.347656 19.375 -41.15625 23.1875 -41.15625 C 26.988281 -41.15625 30.300781 -40.347656 33.125 -38.734375 C 35.945312 -37.128906 38.117188 -34.75 39.640625 -31.59375 C 41.171875 -28.445312 41.9375 -24.640625 41.9375 -20.171875 C 41.9375 -15.710938 41.171875 -11.910156 39.640625 -8.765625 C 38.117188 -5.628906 35.945312 -3.253906 33.125 -1.640625 C 30.300781 -0.0351562 26.988281 0.765625 23.1875 0.765625 Z M 23.1875 -4.578125 C 27.207031 -4.578125 30.285156 -5.84375 32.421875 -8.375 C 34.554688 -10.914062 35.625 -14.847656 35.625 -20.171875 C 35.625 -25.523438 34.554688 -29.46875 32.421875 -32 C 30.285156 -34.539062 27.207031 -35.8125 23.1875 -35.8125 C 19.15625 -35.8125 16.0625 -34.535156 13.90625 -31.984375 C 11.757812 -29.429688 10.6875 -25.492188 10.6875 -20.171875 C 10.6875 -14.847656 11.757812 -10.914062 13.90625 -8.375 C 16.0625 -5.84375 19.15625 -4.578125 23.1875 -4.578125 Z M 23.1875 -4.578125 "/></g></g></g><g fill="#7ed957" fill-opacity="1"><g transform="translate(517.570029, 591.648038)"><g><path d="M 20.953125 0.765625 C 17.703125 0.765625 14.835938 -0.00390625 12.359375 -1.546875 C 9.878906 -3.097656 7.9375 -5.4375 6.53125 -8.5625 C 5.132812 -11.6875 4.4375 -15.554688 4.4375 -20.171875 C 4.4375 -24.785156 5.164062 -28.660156 6.625 -31.796875 C 8.09375 -34.941406 10.113281 -37.285156 12.6875 -38.828125 C 15.257812 -40.378906 18.242188 -41.15625 21.640625 -41.15625 C 24.328125 -41.15625 26.742188 -40.648438 28.890625 -39.640625 C 31.035156 -38.628906 32.878906 -36.960938 34.421875 -34.640625 L 35.1875 -34.796875 L 35.1875 -56.609375 L 41.15625 -56.609375 L 41.15625 0 L 35.1875 0 L 35.1875 -5.890625 L 34.421875 -6.046875 C 33.109375 -4.046875 31.320312 -2.410156 29.0625 -1.140625 C 26.800781 0.128906 24.097656 0.765625 20.953125 0.765625 Z M 22.8125 -4.578125 C 26.570312 -4.578125 29.570312 -5.863281 31.8125 -8.4375 C 34.0625 -11.019531 35.1875 -14.929688 35.1875 -20.171875 C 35.1875 -25.453125 34.0625 -29.378906 31.8125 -31.953125 C 29.570312 -34.523438 26.570312 -35.8125 22.8125 -35.8125 C 18.9375 -35.8125 15.945312 -34.550781 13.84375 -32.03125 C 11.738281 -29.519531 10.6875 -25.566406 10.6875 -20.171875 C 10.6875 -9.773438 14.726562 -4.578125 22.8125 -4.578125 Z M 22.8125 -4.578125 "/></g></g></g></svg>